<svg width="22" height="34" viewBox="0 0 22 34" fill="none" xmlns="http://www.w3.org/2000/svg">
<path d="M11.1165 0.42041C11.1483 0.558001 11.1695 0.663839 11.2012 0.780261C11.3282 1.25654 11.4552 1.73281 11.6034 2.1985C11.7621 2.71711 11.9315 3.23572 12.1432 3.73316C12.3972 4.3682 12.6829 4.98206 12.9793 5.60651C13.3921 6.48497 13.8578 7.3211 14.3658 8.14664C14.8209 8.87693 15.2866 9.6178 15.7629 10.3375C16.2603 11.089 16.7895 11.8192 17.2975 12.5601C17.795 13.2904 18.303 14.0101 18.7898 14.751C19.2238 15.4072 19.6471 16.074 20.0282 16.7619C20.3351 17.3123 20.6103 17.8944 20.8643 18.4765C21.0548 18.921 21.2135 19.3867 21.3617 19.8524C21.4464 20.1276 21.4887 20.4134 21.5522 20.6991C21.7639 21.6199 21.7427 22.5513 21.7004 23.4827C21.6792 23.8319 21.6475 24.1812 21.584 24.5199C21.4781 25.1338 21.3406 25.737 21.15 26.3297C20.949 26.9648 20.6949 27.5786 20.388 28.1607C19.9858 28.9016 19.5095 29.5896 18.938 30.214C18.3771 30.8279 17.742 31.3677 17.0329 31.8228C16.5037 32.1615 15.9534 32.4578 15.3501 32.6801C14.9373 32.8282 14.5245 32.9658 14.1012 33.0823C13.7096 33.1881 13.3074 33.2516 12.9052 33.3151C11.9527 33.4844 10.9895 33.4527 10.0264 33.3998C9.60304 33.3786 9.17968 33.3151 8.76691 33.2304C8.35414 33.1458 7.94137 33.0082 7.5286 32.9023C7.08408 32.7859 6.66072 32.5954 6.24795 32.4049C5.78226 32.1932 5.34832 31.9286 4.92497 31.6323C4.3746 31.2512 3.86658 30.8173 3.40089 30.3304C2.75527 29.6531 2.21549 28.9016 1.80272 28.0655C1.6228 27.7056 1.43229 27.3458 1.2947 26.9648C1.11477 26.4779 0.966595 25.9805 0.839589 25.4724C0.744334 25.1232 0.702 24.7633 0.64908 24.4035C0.532658 23.6732 0.479737 22.9323 0.500905 22.1914C0.511489 21.7998 0.543241 21.4188 0.606744 21.0378C0.701999 20.4663 0.829006 19.9053 1.04068 19.355C1.23119 18.8575 1.41112 18.3601 1.63338 17.8838C1.97206 17.1429 2.37425 16.4232 2.80819 15.7353C3.13629 15.2273 3.45381 14.7086 3.79249 14.2112C4.27935 13.5021 4.76621 12.793 5.26365 12.0838C5.77168 11.3536 6.29029 10.6233 6.77714 9.8824C7.28517 9.09919 7.77203 8.3054 8.2483 7.50102C8.58699 6.94008 8.89392 6.35796 9.19027 5.76527C9.44428 5.24666 9.66654 4.71746 9.89939 4.18827C10.037 3.88134 10.164 3.56382 10.2804 3.25689C10.3968 2.96054 10.4921 2.65361 10.5873 2.34668C10.7038 1.98682 10.8202 1.62697 10.9154 1.26712C10.9789 1.02369 11.0319 0.780262 11.0954 0.536833C11.0848 0.494497 11.0954 0.47333 11.1165 0.42041Z" fill="#64A9FB"/>
<path d="M14.567 26.1286C16.8174 26.1286 18.6418 24.3042 18.6418 22.0538C18.6418 19.8034 16.8174 17.979 14.567 17.979C12.3165 17.979 10.4922 19.8034 10.4922 22.0538C10.4922 24.3042 12.3165 26.1286 14.567 26.1286Z" fill="white"/>
<path d="M13.8297 23.6356V23.3799L14.7899 22.3288C14.9026 22.2057 14.9954 22.0987 15.0683 22.0078C15.1413 21.9159 15.1952 21.8297 15.2303 21.7493C15.2663 21.6678 15.2842 21.5826 15.2842 21.4936C15.2842 21.3913 15.2596 21.3028 15.2104 21.2279C15.1621 21.1531 15.0958 21.0954 15.0115 21.0547C14.9272 21.0139 14.8325 20.9936 14.7274 20.9936C14.6157 20.9936 14.5181 21.0168 14.4348 21.0632C14.3524 21.1086 14.2885 21.1726 14.2431 21.2549C14.1985 21.3373 14.1763 21.4339 14.1763 21.5447H13.8411C13.8411 21.3743 13.8804 21.2246 13.959 21.0958C14.0376 20.9671 14.1446 20.8667 14.28 20.7947C14.4163 20.7227 14.5693 20.6868 14.7388 20.6868C14.9092 20.6868 15.0603 20.7227 15.1919 20.7947C15.3235 20.8667 15.4268 20.9637 15.5016 21.0859C15.5764 21.2081 15.6138 21.344 15.6138 21.4936C15.6138 21.6006 15.5944 21.7052 15.5556 21.8075C15.5177 21.9088 15.4514 22.022 15.3567 22.147C15.2629 22.271 15.1327 22.4226 14.9661 22.6015L14.3127 23.3004V23.3231H15.6649V23.6356H13.8297Z" fill="black"/>
</svg>
