<svg width="30" height="30" viewBox="0 0 30 30" fill="none" xmlns="http://www.w3.org/2000/svg">
<path d="M0.427091 11.5739C0.470756 11.6102 0.514421 11.6343 0.558086 11.6827C0.983818 12.13 1.40955 12.5774 1.8462 13.0127C2.1846 13.3633 2.53392 13.6897 2.88324 14.0283C3.13431 14.2701 3.37447 14.524 3.61462 14.7658C3.8657 15.0076 4.1386 15.2494 4.40059 15.4912C4.65166 15.721 4.89182 15.9507 5.14289 16.1804C5.26297 16.2892 5.39397 16.4101 5.52496 16.5069C5.89611 16.7849 6.24543 17.1114 6.64933 17.3169C7.0314 17.5104 7.46804 17.6313 7.87194 17.329C7.91561 17.2927 7.98111 17.2807 8.02477 17.2565C8.1121 17.196 8.22126 17.1597 8.28676 17.063C8.46142 16.8212 8.65791 16.6036 8.75616 16.3013C8.83257 16.0595 8.93082 15.8298 9.00723 15.588C9.06181 15.4066 9.09456 15.2252 9.12731 15.0439C9.17097 14.6933 9.21464 14.3305 9.24739 13.9799C9.31288 13.3996 9.35655 12.8192 9.46571 12.251C9.52029 11.985 9.6622 11.719 9.7932 11.4892C9.94602 11.2232 10.2408 11.1507 10.5027 11.2595C10.994 11.4651 11.3542 11.8278 11.5616 12.3719C11.7909 13.0127 11.9655 13.6776 12.0965 14.3547C12.1838 14.8021 12.2603 15.2494 12.3803 15.6968C12.4895 16.12 12.6314 16.531 12.8607 16.8938C13.0026 17.1114 13.1445 17.329 13.2973 17.5346C13.3519 17.6071 13.4174 17.6796 13.4938 17.728C13.7885 17.9094 14.0833 18.0786 14.378 18.2479C14.5636 18.3567 14.7382 18.4655 14.9238 18.5502C15.1203 18.6469 15.3277 18.7194 15.5351 18.792C15.6443 18.8283 15.7644 18.8524 15.8735 18.8766C16.2993 18.9975 16.7359 18.7074 16.8341 18.2237C16.9324 17.7401 16.6377 17.2686 16.1901 17.196C15.7862 17.1356 15.426 16.9421 15.0657 16.7366C14.902 16.6399 14.7382 16.5189 14.5745 16.4464C14.3889 16.3618 14.247 16.2167 14.1706 16.0232C14.0287 15.6726 13.8759 15.3099 13.7776 14.9351C13.6575 14.4877 13.603 14.0162 13.5047 13.5688C13.4174 13.194 13.3082 12.8313 13.21 12.4565C13.1554 12.251 13.1008 12.0333 13.0135 11.8278C12.9043 11.5497 12.817 11.2474 12.6205 11.0177C12.4677 10.8243 12.3367 10.6066 12.1729 10.4374C11.9983 10.256 11.8018 10.0867 11.5944 9.95373C11.3433 9.79656 11.0813 9.66356 10.8084 9.57893C10.4918 9.4822 10.1643 9.45802 9.82594 9.55474C9.5967 9.62729 9.37838 9.69983 9.16006 9.84492C8.83257 10.0625 8.57058 10.3406 8.38501 10.7154C8.27584 10.9452 8.15577 11.1628 8.06844 11.3925C7.99202 11.5739 7.93744 11.7794 7.90469 11.9729C7.8392 12.3719 7.79553 12.7588 7.75187 13.1578C7.67545 13.8348 7.66454 14.524 7.47896 15.189C7.4353 15.3462 7.35888 15.5033 7.29339 15.6484C7.26064 15.7331 7.20606 15.7451 7.14056 15.6847C6.72574 15.3341 6.30001 14.9955 5.88519 14.6449C5.51404 14.3305 5.16472 13.992 4.80449 13.6656C4.56433 13.4358 4.33509 13.194 4.09494 12.9643C3.85478 12.7225 3.60371 12.4928 3.36355 12.251C3.13431 12.0212 2.90507 11.7915 2.67583 11.5618C2.40292 11.2837 2.14094 11.0056 1.86803 10.7396C1.74795 10.6187 1.62787 10.5099 1.5078 10.3769C1.23489 10.0746 0.907404 9.84492 0.579918 9.63938C0.438007 9.55474 0.285179 9.49429 0.132352 9.44593C0.0341066 9.40966 0.00135826 9.3492 0.00135826 9.2283C-0.00955795 8.52704 0.0450238 7.83787 0.176018 7.14871C0.350678 6.22982 0.645416 5.37139 1.08206 4.5734C1.48596 3.83588 1.96628 3.17089 2.53392 2.59054C3.11248 2.01019 3.74562 1.51447 4.43334 1.10339C5.20839 0.643949 6.03802 0.329594 6.9004 0.148234C7.48988 0.0273278 8.09027 0.00314651 8.67974 0.0273278C9.02906 0.051509 9.37838 0.111961 9.7277 0.184504C10.1098 0.269139 10.4918 0.365865 10.863 0.510953C11.5616 0.776947 12.1948 1.20012 12.7842 1.70792C13.6139 2.42127 14.3125 3.26762 14.9129 4.22278C14.9347 4.25905 14.9675 4.29532 15.0002 4.35577C15.1203 4.17441 15.2404 4.00514 15.3495 3.84797C15.8517 3.09835 16.4412 2.43336 17.0961 1.82883C17.5437 1.41775 18.0458 1.06712 18.5589 0.776946C19.0392 0.510953 19.5523 0.329593 20.0763 0.196596C20.3928 0.111961 20.7312 0.0877806 21.0587 0.0515087C21.3971 0.0152368 21.7355 -0.00894559 22.0739 0.00314504C22.7507 0.0273263 23.4057 0.148233 24.0498 0.377955C25.8509 1.01876 27.3465 2.15528 28.4817 3.82378C29.2677 4.97239 29.7262 6.26609 29.9227 7.6807C30.0973 8.99857 29.9663 10.2802 29.6279 11.5497C29.3114 12.7225 28.7765 13.7502 28.1433 14.7416C27.2373 16.1562 26.233 17.4862 25.1741 18.7678C24.3882 19.723 23.6022 20.666 22.7944 21.5849C21.7246 22.8061 20.6439 24.003 19.5523 25.1879C18.7663 26.0585 17.9476 26.8927 17.1507 27.7511C16.4412 28.5008 15.7207 29.2383 14.9893 30C14.8801 29.8912 14.771 29.7824 14.6618 29.6615C13.7994 28.7547 12.9261 27.86 12.0747 26.9532C10.6337 25.3935 9.20372 23.8338 7.7737 22.262C7.18422 21.6091 6.59475 20.9441 6.0271 20.255C5.25205 19.3119 4.46609 18.3809 3.72379 17.4016C3.03606 16.4948 2.39201 15.5517 1.74795 14.6086C1.25672 13.8711 0.841906 13.0852 0.547169 12.2268C0.470755 12.0212 0.416174 11.8036 0.350677 11.586C0.405258 11.586 0.416175 11.5739 0.427091 11.5739Z" fill="#D52727"/>
</svg>
