<svg width="40" height="40" viewBox="0 0 40 40" fill="none" xmlns="http://www.w3.org/2000/svg">
<path d="M20 36C28.8366 36 36 28.8366 36 20C36 11.1634 28.8366 4 20 4C11.1634 4 4 11.1634 4 20C4 28.8366 11.1634 36 20 36Z" fill="#12CF69"/>
<path d="M20 24.8234C18.0067 24.8234 16.0133 24.8234 14.02 24.8234C13.6244 24.8234 13.3353 24.6713 13.1223 24.3365C12.1484 22.7997 11.1594 21.278 10.1703 19.7564C9.92684 19.3608 9.94206 18.95 10.2312 18.6C12.4223 15.998 15.1917 14.4459 18.5697 14.0808C22.6324 13.6547 26.1321 14.9177 29.0385 17.7935C29.2971 18.0522 29.5406 18.3261 29.7688 18.6152C30.0579 18.95 30.0732 19.3608 29.8297 19.7412C28.8406 21.278 27.8364 22.8301 26.8473 24.3669C26.6495 24.6713 26.3756 24.8234 26.0104 24.8234C24.0323 24.8234 22.0085 24.8234 20 24.8234ZM13.6853 17.824C13.6396 17.8544 13.594 17.8848 13.5635 17.9153C13.0918 18.3413 12.6201 18.7521 12.1332 19.1782C12.0267 19.2695 12.0267 19.3304 12.1028 19.4521C12.8484 20.6085 13.594 21.7497 14.3243 22.9062C14.3852 23.0127 14.4613 23.0431 14.5678 23.0431C16.1351 23.0431 17.7023 23.0431 19.2696 23.0431C19.437 23.0431 19.5131 22.9975 19.6044 22.8605C20.3956 21.5672 21.2021 20.2738 22.0085 18.9956C22.1607 18.7369 22.389 18.5696 22.6933 18.5391C23.0585 18.4935 23.3628 18.6304 23.5606 18.95C23.7584 19.2695 23.7584 19.6043 23.5606 19.939C22.952 20.9129 22.3433 21.9019 21.7347 22.8758C21.7042 22.9214 21.6738 22.9823 21.6281 23.0431C21.6738 23.0431 21.7042 23.0583 21.7347 23.0583C22.9824 23.0583 24.2301 23.0583 25.4778 23.0583C25.5387 23.0583 25.6148 23.0127 25.6452 22.967C26.406 21.7954 27.1669 20.6085 27.9277 19.4369C27.9733 19.3608 27.9733 19.3151 27.9125 19.2391C27.456 18.7521 26.9538 18.3109 26.4213 17.9305C26.3908 17.9153 26.3604 17.9 26.33 17.8696C26.2995 17.9153 26.2691 17.9457 26.2387 17.9913C26.0256 18.2957 25.6452 18.4478 25.2953 18.3565C24.9301 18.2652 24.6562 17.9913 24.6105 17.6109C24.5801 17.4131 24.5801 17.2153 24.5953 17.0175C24.5953 16.8805 24.5497 16.8197 24.4279 16.774C23.4541 16.348 22.4498 16.0589 21.3847 15.9219C21.2325 15.9067 21.0651 15.8915 20.8978 15.8763C20.8978 15.998 20.8978 16.1045 20.8978 16.1958C20.8978 16.7132 20.4869 17.1088 19.9848 17.1088C19.4826 17.1088 19.1022 16.7132 19.087 16.1958C19.087 16.0893 19.087 15.998 19.087 15.9067C19.0566 15.8915 19.0566 15.8915 19.0414 15.8915C19.0109 15.8915 18.9805 15.8915 18.9501 15.8915C17.748 16.0132 16.5916 16.3175 15.496 16.8197C15.4503 16.8349 15.4047 16.911 15.4047 16.9718C15.3895 17.1392 15.4047 17.3218 15.4047 17.5044C15.3895 17.9153 15.1308 18.25 14.7504 18.3717C14.37 18.4783 13.9744 18.3413 13.7461 17.9913C13.7461 17.9 13.7157 17.8696 13.6853 17.824Z" fill="white"/>
</svg>
