<svg width="40" height="40" viewBox="0 0 40 40" fill="none" xmlns="http://www.w3.org/2000/svg">
<path d="M20.9632 36.2392C29.965 36.2392 37.2624 28.9418 37.2624 19.94C37.2624 10.9383 29.965 3.64087 20.9632 3.64087C11.9615 3.64087 4.66406 10.9383 4.66406 19.94C4.66406 28.9418 11.9615 36.2392 20.9632 36.2392Z" fill="#EC8634"/>
<path d="M28.9857 19.9259C28.9504 21.9368 28.3366 23.6725 27.0665 25.1613C25.8529 26.5796 24.3288 27.4757 22.5013 27.8355C22.2614 27.8849 22.0215 27.9696 21.7605 27.899C21.4359 27.8214 21.1819 27.5251 21.1819 27.1934C21.1819 24.9708 21.1819 22.7553 21.1819 20.5327C21.1819 20.2645 21.2948 20.0387 21.5347 19.8976C22.3391 19.4319 23.1434 18.9592 23.9478 18.4935C25.0415 17.8585 26.1351 17.2305 27.2288 16.5955C27.7439 16.2991 28.1955 16.4685 28.4213 17.0259C28.7035 17.7244 28.8658 18.4441 28.9434 19.185C28.9787 19.4602 28.9787 19.7283 28.9857 19.9259ZM21.7111 23.8419C21.7111 24.1735 21.7111 24.5122 21.7111 24.8438C21.7111 25.5988 21.7111 26.3609 21.7111 27.1158C21.7111 27.3134 21.824 27.4263 22.0004 27.391C22.2544 27.3416 22.5155 27.2993 22.7624 27.2358C24.5193 26.7842 25.9376 25.8317 27.0101 24.3711C27.8568 23.2139 28.3225 21.9086 28.4283 20.4692C28.5059 19.3402 28.3295 18.2607 27.9273 17.2093C27.8356 16.9694 27.7227 16.9341 27.4969 17.0612C27.2147 17.2234 26.9395 17.3857 26.6573 17.548C25.0697 18.4653 23.4892 19.3755 21.9016 20.2928C21.7675 20.3704 21.704 20.4692 21.7111 20.6314C21.7181 21.7039 21.7111 22.7764 21.7111 23.8419Z" fill="#F9FBEE"/>
<path d="M20.7445 23.8701C20.7445 24.9497 20.7304 26.0292 20.7515 27.1159C20.7586 27.6662 20.2576 27.9837 19.8201 27.9132C18.3666 27.6874 17.0613 27.13 15.9253 26.2056C14.4294 24.985 13.4839 23.4186 13.0958 21.5205C12.9406 20.7514 12.8983 19.9823 12.9759 19.2062C13.0535 18.43 13.237 17.668 13.5333 16.9483C13.7238 16.4896 14.1825 16.3274 14.6129 16.5743C16.0946 17.421 17.5764 18.2818 19.0581 19.1356C19.4673 19.3685 19.8766 19.6154 20.2858 19.8483C20.6033 20.0247 20.7445 20.2787 20.7445 20.6385C20.7374 21.711 20.7445 22.7906 20.7445 23.8701ZM20.2082 23.856C20.2082 22.7835 20.2082 21.7181 20.2082 20.6456C20.2082 20.4833 20.1518 20.3704 20.0106 20.2928C18.1479 19.2203 16.2851 18.1407 14.4153 17.0682C14.1895 16.9412 14.0907 16.9836 13.9919 17.2305C13.7168 17.929 13.5474 18.6558 13.491 19.4108C13.4204 20.3351 13.5192 21.2383 13.7873 22.1273C14.119 23.2492 14.6905 24.237 15.4878 25.0908C16.0664 25.7117 16.7367 26.2268 17.4917 26.6219C18.2326 27.003 19.0087 27.264 19.8342 27.391C20.1306 27.4334 20.2082 27.3769 20.2082 27.0876C20.2082 26.001 20.2082 24.9285 20.2082 23.856Z" fill="#F9FBEE"/>
<path d="M20.8009 11.9386C22.9389 11.9739 24.6887 12.6019 26.1846 13.9001C26.5727 14.2388 26.9184 14.6269 27.2641 15.0079C27.6169 15.4101 27.5111 15.9322 27.0525 16.2004C25.1756 17.287 23.2987 18.3665 21.4218 19.4532C21.1184 19.6296 20.8221 19.6296 20.5187 19.4532C18.6418 18.3665 16.7649 17.2799 14.8881 16.2004C14.4153 15.9252 14.3236 15.4242 14.6552 15.0079C15.3044 14.2035 16.0664 13.5262 16.9625 13.0182C17.8445 12.5101 18.79 12.1644 19.799 12.0374C20.18 11.995 20.5751 11.9598 20.8009 11.9386ZM20.9491 12.4607C20.6457 12.489 20.3352 12.5101 20.0318 12.5384C19.1639 12.6301 18.3455 12.8911 17.5693 13.2863C16.6026 13.7802 15.7842 14.4505 15.1068 15.2972C14.9304 15.5159 14.9445 15.6288 15.1844 15.77C17.0048 16.8213 18.8323 17.8726 20.6527 18.931C20.8715 19.058 21.0479 19.058 21.2666 18.931C22.2686 18.3383 23.2846 17.7597 24.2865 17.1811C25.1121 16.7013 25.9447 16.2215 26.7702 15.7417C26.9537 15.6359 26.9748 15.5089 26.8478 15.3466C26.4245 14.8104 25.9447 14.3376 25.3943 13.9354C24.0749 12.9758 22.5931 12.489 20.9491 12.4607Z" fill="#F9FBEE"/>
</svg>
