<svg width="22" height="33" viewBox="0 0 22 33" fill="none" xmlns="http://www.w3.org/2000/svg">
<path d="M11 0C13.9174 0 16.7153 1.15893 18.7782 3.22183C20.8411 5.28473 22 8.08262 22 11C22 16.445 18.04 20.9733 12.8333 21.8533V25.6667H16.5V29.3333H12.8333V33H9.16667V29.3333H5.5V25.6667H9.16667V21.8533C3.96 20.9733 0 16.445 0 11C0 8.08262 1.15893 5.28473 3.22183 3.22183C5.28473 1.15893 8.08262 0 11 0V0ZM11 3.66667C9.05508 3.66667 7.18982 4.43928 5.81455 5.81455C4.43928 7.18982 3.66667 9.05508 3.66667 11C3.66667 12.9449 4.43928 14.8102 5.81455 16.1855C7.18982 17.5607 9.05508 18.3333 11 18.3333C12.9449 18.3333 14.8102 17.5607 16.1855 16.1855C17.5607 14.8102 18.3333 12.9449 18.3333 11C18.3333 9.05508 17.5607 7.18982 16.1855 5.81455C14.8102 4.43928 12.9449 3.66667 11 3.66667Z" fill="white"/>
</svg>
