<svg width="40" height="40" viewBox="0 0 40 40" fill="none" xmlns="http://www.w3.org/2000/svg">
<path fill-rule="evenodd" clip-rule="evenodd" d="M17.7769 10.0301L19.9999 12.0198L22.2229 10.0301C23.4046 8.97247 24.9569 8.33333 26.6666 8.33333C30.3484 8.33333 33.3333 11.3182 33.3333 15.0001C33.3333 16.1831 33.2082 17.2926 32.9799 18.3333H28.5988L26.5318 13.5101C26.2691 12.8973 25.6666 12.5 24.9998 12.5C24.3331 12.5 23.7306 12.8973 23.4679 13.5101L19.9998 21.6023L19.0318 19.3435C18.7691 18.7307 18.1666 18.3333 17.4998 18.3333H7.01989C6.79162 17.2926 6.66659 16.183 6.66659 15C6.66659 11.3181 9.65135 8.33333 13.3333 8.33333C15.0428 8.33333 16.5952 8.97247 17.7769 10.0301ZM4.55117 21.6667C7.54913 29.4183 15.2777 33.3543 18.5266 34.709C19.4758 35.1047 20.5241 35.1047 21.4733 34.709C25.5474 33.0102 36.6666 27.252 36.6666 15.0001C36.6666 9.47723 32.1894 5 26.6666 5C24.1054 5 21.7691 5.96285 19.9999 7.54632C18.2308 5.96285 15.8944 5 13.3333 5C7.8104 5 3.33325 9.47715 3.33325 15C3.33325 16.1696 3.43458 17.28 3.62143 18.3333H3.62134C3.831 19.5153 4.14835 20.6253 4.55107 21.6667H4.55117ZM8.18794 21.6667H16.4008L18.4679 26.4898C18.7306 27.1027 19.3331 27.5 19.9998 27.5C20.6666 27.5 21.2691 27.1027 21.5318 26.4898L24.9998 18.3977L25.9679 20.6565C26.2306 21.2693 26.8331 21.6667 27.4998 21.6667H31.8118C30.9052 23.5082 29.6631 25.0776 28.2796 26.4168C25.4093 29.1948 22.0336 30.8638 20.1904 31.6323C20.0623 31.6857 19.9376 31.6857 19.8094 31.6323C17.9663 30.8638 14.5906 29.1948 11.7203 26.4168C10.3367 25.0777 9.09454 23.5083 8.18794 21.6667Z" fill="#D52727"/>
</svg>
