<svg width="34" height="34" viewBox="0 0 34 34" fill="none" xmlns="http://www.w3.org/2000/svg">
<path d="M11.5 11.5C13.865 11.5 16.0833 12.2517 17.8617 13.535L27.23 4.16667H18.8333V0.5H33.5V15.1667H29.8333V6.75167L20.465 16.0833C21.7483 17.9167 22.5 20.1167 22.5 22.5C22.5 25.4174 21.3411 28.2153 19.2782 30.2782C17.2153 32.3411 14.4174 33.5 11.5 33.5C8.58262 33.5 5.78473 32.3411 3.72183 30.2782C1.65893 28.2153 0.5 25.4174 0.5 22.5C0.5 19.5826 1.65893 16.7847 3.72183 14.7218C5.78473 12.6589 8.58262 11.5 11.5 11.5ZM11.5 15.1667C9.55508 15.1667 7.68982 15.9393 6.31455 17.3146C4.93928 18.6898 4.16667 20.5551 4.16667 22.5C4.16667 24.4449 4.93928 26.3102 6.31455 27.6854C7.68982 29.0607 9.55508 29.8333 11.5 29.8333C13.4449 29.8333 15.3102 29.0607 16.6854 27.6854C18.0607 26.3102 18.8333 24.4449 18.8333 22.5C18.8333 20.5551 18.0607 18.6898 16.6854 17.3146C15.3102 15.9393 13.4449 15.1667 11.5 15.1667Z" fill="white"/>
</svg>
