<svg width="40" height="40" viewBox="0 0 40 40" fill="none" xmlns="http://www.w3.org/2000/svg">
<path d="M20.9632 36.2392C29.965 36.2392 37.2624 28.9418 37.2624 19.94C37.2624 10.9383 29.965 3.64087 20.9632 3.64087C11.9615 3.64087 4.66406 10.9383 4.66406 19.94C4.66406 28.9418 11.9615 36.2392 20.9632 36.2392Z" fill="#3BA3F7"/>
<path d="M28.379 25.4648C27.8992 25.4648 27.4194 25.4577 26.9396 25.4718C26.862 25.4718 26.7632 25.5142 26.6997 25.5636C26.4315 25.7752 26.2481 26.0434 26.1211 26.3538C25.9306 26.8407 25.7542 27.3346 25.5707 27.8285C25.5566 27.8708 25.5354 27.9061 25.5213 27.9414C25.4155 28.2378 25.2109 28.3789 24.8863 28.3789C23.9338 28.3789 22.9812 28.4 22.0287 28.4071C20.8574 28.4141 19.6861 28.4071 18.5148 28.4C18.2467 28.4 17.9786 28.3577 17.7104 28.3295C17.4282 28.2942 17.28 28.1249 17.1883 27.8567C17.0119 27.3416 16.8214 26.8266 16.6168 26.3185C16.5039 26.0363 16.3628 25.7541 16.0876 25.5847C15.9888 25.5212 15.8618 25.4789 15.7418 25.4718C14.874 25.4507 14.0061 25.4859 13.1523 25.4154C11.5012 25.2813 10.0477 24.6675 8.86936 23.468C8.58007 23.1787 8.36839 22.8259 8.30489 22.4166C8.28372 22.2755 8.29784 22.1062 8.34017 21.965C8.78469 20.5256 9.49734 19.2415 10.6545 18.2325C11.2049 17.7527 11.7482 17.2658 12.2844 16.7648C12.5243 16.539 12.7501 16.278 12.9477 16.0169C13.371 15.4595 13.9708 15.2266 14.6199 15.0996C14.9022 15.0432 15.2197 15.0361 15.5019 15.0855C16.2287 15.2055 16.6097 15.6994 16.7649 16.3838C16.8637 16.8213 16.8284 17.2446 16.6097 17.6398C16.398 18.0137 16.0805 18.2113 15.643 18.2183C15.2903 18.2254 14.9516 18.169 14.6129 18.0702C14.3659 17.9926 14.3377 18.0067 14.253 18.2466C13.992 18.9663 13.7379 19.6789 13.4769 20.3986C13.4345 20.5045 13.4628 20.5539 13.5686 20.575C13.8156 20.6385 14.0625 20.7091 14.3024 20.7796C14.4294 20.8149 14.5635 20.8643 14.6764 20.9278C14.8104 20.9984 14.9163 20.9913 15.0433 20.9137C15.5302 20.6103 16.0735 20.5045 16.6309 20.441C17.3929 20.3492 18.155 20.3492 18.8958 20.5962C18.9876 20.6244 19.044 20.5821 19.1004 20.5256C19.5167 20.0811 19.9965 19.7283 20.5963 19.5731C21.697 19.2908 22.6637 19.5378 23.4751 20.3281C23.715 20.5609 23.9055 20.6174 24.216 20.5186C24.724 20.3633 25.2673 20.4057 25.7965 20.4127C26.5021 20.4198 27.1654 20.6174 27.7933 20.9137C27.8921 20.9631 27.9838 20.9631 28.0826 20.9278C28.386 20.829 28.6824 20.7373 28.9858 20.6526C29.0634 20.6315 29.141 20.6315 29.2186 20.6244C29.3174 20.6103 29.3527 20.5539 29.3315 20.4621C29.3245 20.441 29.3174 20.4198 29.3104 20.3986C29.0422 19.6789 28.7741 18.9522 28.506 18.2325C28.4354 18.049 28.4213 18.049 28.2237 18.0843C27.9203 18.1407 27.624 18.2183 27.3206 18.2325C26.5021 18.2677 25.9588 17.7103 25.9729 16.8848C25.98 16.5108 26.0787 16.151 26.2481 15.8123C26.488 15.3254 26.9043 15.1279 27.4194 15.0855C28.1461 15.022 28.8023 15.2196 29.4021 15.6147C29.5503 15.7135 29.6843 15.8334 29.7831 15.9746C30.1571 16.5179 30.658 16.9342 31.1449 17.3646C31.5259 17.7103 31.914 18.049 32.295 18.3947C33.0641 19.0862 33.6356 19.9188 34.0237 20.8784C34.1719 21.2453 34.313 21.6122 34.4471 21.9862C34.5459 22.2614 34.4965 22.5225 34.3695 22.7835C34.1578 23.221 33.8544 23.595 33.4804 23.8984C32.4291 24.7521 31.2155 25.246 29.8819 25.4154C29.388 25.4789 28.8799 25.4577 28.379 25.4718C28.379 25.4577 28.379 25.4577 28.379 25.4648Z" fill="white"/>
<path d="M25.0132 14.8315C24.9144 16.4685 24.2159 17.7597 22.9035 18.7052C21.9156 19.4108 20.7091 19.3755 19.7354 18.6135C18.5359 17.6751 17.8867 16.4191 17.7738 14.9091C17.7174 14.1048 18.049 13.4344 18.5641 12.8417C20.0247 11.1836 22.7624 11.1907 24.2229 12.8559C24.5263 13.2016 24.7592 13.5967 24.8932 14.0342C24.985 14.2812 24.9779 14.5634 25.0132 14.8315Z" fill="white"/>
</svg>
