<svg width="24" height="24" viewBox="0 0 24 24" fill="none" xmlns="http://www.w3.org/2000/svg">
<path d="M12.4296 21.7436C17.8307 21.7436 22.2092 17.3651 22.2092 11.9641C22.2092 6.563 17.8307 2.18457 12.4296 2.18457C7.02858 2.18457 2.65015 6.563 2.65015 11.9641C2.65015 17.3651 7.02858 21.7436 12.4296 21.7436Z" fill="#EBEBED"/>
<path d="M12.4254 6.93454C15.2576 6.91761 17.548 9.19949 17.5607 12.0487C17.5734 14.9021 15.3042 17.1797 12.4423 17.1924C9.61855 17.2094 7.32397 14.9317 7.30703 12.1079C7.28586 9.24606 9.55505 6.95148 12.4254 6.93454ZM12.6836 11.8836C12.6836 11.7608 12.6836 11.6719 12.6836 11.5872C12.6836 10.4399 12.6836 9.2884 12.6836 8.1411C12.6836 7.97176 12.6371 7.83629 12.4508 7.84476C12.2857 7.85322 12.2349 7.976 12.2349 8.1411C12.2391 9.4281 12.2391 10.7151 12.2391 12.0021C12.2391 12.2434 12.3238 12.3281 12.5693 12.3281C13.3356 12.3281 14.1061 12.3281 14.8724 12.3281C14.8851 12.3281 14.902 12.3281 14.9147 12.3281C15.0756 12.3366 15.173 12.2476 15.1814 12.0995C15.1899 11.9386 15.0883 11.8751 14.9232 11.8793C14.5633 11.8878 14.2077 11.8836 13.8479 11.8836C13.4711 11.8836 13.0943 11.8836 12.6836 11.8836Z" fill="white"/>
<path d="M17.7091 10.5585C17.0063 8.49255 15.6135 7.19286 13.467 6.66789C14.191 5.84659 15.0589 5.46133 16.1299 5.58834C17.2645 5.72381 18.2383 6.57052 18.5473 7.67971C18.8225 8.66613 18.4457 9.98276 17.7091 10.5585Z" fill="#FF0000"/>
<path d="M11.3628 6.68052C9.23333 7.18855 7.86166 8.50095 7.15043 10.5712C6.37569 9.81335 6.12167 8.92007 6.29102 7.89555C6.44342 6.95994 7.26473 5.84651 8.6237 5.6179C9.63552 5.45279 10.6685 5.77877 11.3628 6.68052Z" fill="#FF0000"/>
<path d="M8.0649 18.073C7.96753 17.9884 7.82782 17.9037 7.75162 17.7852C7.66271 17.6412 7.71775 17.4888 7.85746 17.3787C8.13687 17.1586 8.41205 16.9257 8.6957 16.7098C8.89468 16.5574 9.12329 16.5828 9.26299 16.7522C9.39423 16.913 9.3773 17.1374 9.18679 17.2941C8.90738 17.5269 8.61526 17.747 8.32738 17.9672C8.26811 18.0138 8.19191 18.0222 8.0649 18.073Z" fill="black"/>
<path d="M16.6844 18.0815C16.5405 18.018 16.4304 17.9926 16.35 17.9291C16.0833 17.7259 15.8208 17.5142 15.5668 17.2983C15.4017 17.1586 15.3805 16.9512 15.4948 16.7903C15.6006 16.6421 15.8166 16.5786 15.9817 16.6972C16.3076 16.93 16.6252 17.1756 16.9215 17.4423C16.9935 17.51 17.002 17.709 16.9596 17.8191C16.9257 17.9207 16.786 17.9926 16.6844 18.0815Z" fill="black"/>
</svg>
