<svg width="24" height="24" viewBox="0 0 24 24" fill="none" xmlns="http://www.w3.org/2000/svg">
<path d="M12.4296 21.7436C17.8307 21.7436 22.2092 17.3651 22.2092 11.9641C22.2092 6.563 17.8307 2.18457 12.4296 2.18457C7.02858 2.18457 2.65015 6.563 2.65015 11.9641C2.65015 17.3651 7.02858 21.7436 12.4296 21.7436Z" fill="#EBEBED"/>
<path d="M6.4435 15.2153C6.4435 15.5879 6.4435 15.952 6.4435 16.3245C6.26569 16.3245 6.09212 16.3245 5.91431 16.3245C5.91431 14.3686 5.91431 12.417 5.91431 10.4611C6.09212 10.4611 6.26146 10.4611 6.43927 10.4611C6.43927 11.1892 6.43927 11.9089 6.43927 12.6286C6.66365 12.5651 6.66788 12.5567 6.66788 12.3408C6.67211 11.7438 6.96846 11.3374 7.53999 11.1723C7.65006 11.1384 7.77284 11.13 7.89137 11.13C8.3232 11.1257 8.75502 11.1257 9.19108 11.13C9.78801 11.13 10.2283 11.4686 10.3765 12.0402C10.4061 12.1629 10.4061 12.2984 10.4188 12.4381C10.4654 12.4381 10.5162 12.4381 10.567 12.4381C12.8065 12.4381 15.0461 12.4381 17.2899 12.4381C17.6709 12.4381 18.0561 12.4 18.4117 12.6583C18.4117 12.2392 18.4117 11.8539 18.4117 11.4602C18.5938 11.4602 18.7631 11.4602 18.9409 11.4602C18.9409 13.0774 18.9409 14.6946 18.9409 16.3203C18.7674 16.3203 18.598 16.3203 18.416 16.3203C18.416 15.952 18.416 15.5879 18.416 15.2153C14.4237 15.2153 10.4442 15.2153 6.4435 15.2153ZM6.4562 13.814C10.4442 13.814 14.428 13.814 18.4075 13.814C18.4583 13.2975 18.0858 12.9758 17.6836 12.9758C14.1824 12.9843 10.6813 12.98 7.18014 12.98C7.1124 12.98 7.04466 12.98 6.98116 12.997C6.61284 13.1028 6.42233 13.3991 6.4562 13.814Z" fill="#A7A5A5"/>
<path d="M16.2866 6.69328C17.7514 6.68482 18.9368 7.86598 18.941 9.33925C18.9452 10.8125 17.7725 11.9937 16.2908 12.0022C14.8302 12.0106 13.6406 10.8337 13.6321 9.36889C13.6237 7.88714 14.8006 6.70175 16.2866 6.69328ZM16.4178 9.25458C16.4178 9.19108 16.4178 9.14451 16.4178 9.10217C16.4178 8.50948 16.4178 7.91254 16.4178 7.31985C16.4178 7.23094 16.3924 7.16321 16.2993 7.16744C16.2146 7.17167 16.185 7.23518 16.1892 7.31985C16.1934 7.98452 16.1892 8.65342 16.1892 9.31808C16.1892 9.44086 16.2358 9.48743 16.3585 9.48743C16.7565 9.48743 17.1544 9.48743 17.5524 9.48743C17.5609 9.48743 17.5693 9.48743 17.5736 9.48743C17.6582 9.49166 17.709 9.44509 17.7133 9.36889C17.7175 9.28845 17.6625 9.25458 17.582 9.25458C17.3958 9.25881 17.2095 9.25458 17.0274 9.25458C16.8285 9.25458 16.6295 9.25458 16.4178 9.25458Z" fill="white"/>
</svg>
