<svg width="24" height="24" viewBox="0 0 24 24" fill="none" xmlns="http://www.w3.org/2000/svg">
<path d="M12.4296 21.7436C17.8307 21.7436 22.2091 17.3651 22.2091 11.9641C22.2091 6.563 17.8307 2.18457 12.4296 2.18457C7.02858 2.18457 2.65015 6.563 2.65015 11.9641C2.65015 17.3651 7.02858 21.7436 12.4296 21.7436Z" fill="#EBEBED"/>
<path d="M6.4435 15.2153C6.4435 15.5879 6.4435 15.952 6.4435 16.3245C6.26569 16.3245 6.09212 16.3245 5.91431 16.3245C5.91431 14.3686 5.91431 12.417 5.91431 10.4611C6.09212 10.4611 6.26146 10.4611 6.43927 10.4611C6.43927 11.1892 6.43927 11.9089 6.43927 12.6286C6.66365 12.5651 6.66788 12.5567 6.66788 12.3408C6.67211 11.7438 6.96846 11.3374 7.53999 11.1723C7.65006 11.1384 7.77284 11.13 7.89137 11.13C8.3232 11.1257 8.75502 11.1257 9.19108 11.13C9.78801 11.13 10.2283 11.4686 10.3765 12.0402C10.4061 12.1629 10.4061 12.2984 10.4188 12.4381C10.4654 12.4381 10.5162 12.4381 10.567 12.4381C12.8065 12.4381 15.0461 12.4381 17.2899 12.4381C17.6709 12.4381 18.0561 12.4 18.4117 12.6583C18.4117 12.2392 18.4117 11.8539 18.4117 11.4602C18.5938 11.4602 18.7631 11.4602 18.9409 11.4602C18.9409 13.0774 18.9409 14.6946 18.9409 16.3203C18.7674 16.3203 18.598 16.3203 18.416 16.3203C18.416 15.952 18.416 15.5879 18.416 15.2153C14.4237 15.2153 10.4442 15.2153 6.4435 15.2153ZM6.4562 13.814C10.4442 13.814 14.428 13.814 18.4075 13.814C18.4583 13.2975 18.0858 12.9758 17.6836 12.9758C14.1824 12.9843 10.6813 12.98 7.18014 12.98C7.1124 12.98 7.04466 12.98 6.98116 12.997C6.61284 13.1028 6.42233 13.3991 6.4562 13.814Z" fill="#A7A5A5"/>
<path d="M15.8335 10.6686C15.7954 10.6643 15.7615 10.6601 15.7234 10.6558C15.427 10.622 15.1561 10.5204 14.9148 10.3426C14.6735 10.169 14.4914 9.94885 14.3644 9.68213C14.3602 9.67367 14.356 9.66097 14.356 9.64826C14.3687 9.65673 14.3771 9.6652 14.3898 9.67367C14.6015 9.83031 14.8343 9.92768 15.0968 9.95731C15.5456 10.0081 15.9393 9.88534 16.2738 9.58476C16.5278 9.35615 16.6844 9.0725 16.7352 8.73382C16.8114 8.23849 16.6717 7.8109 16.3288 7.45105C16.2611 7.38332 16.1891 7.32405 16.1086 7.26901C16.1002 7.26478 16.0959 7.26054 16.0917 7.25208C16.0959 7.25208 16.1044 7.25208 16.1086 7.25208C16.1467 7.25631 16.1849 7.26478 16.2187 7.26901C16.5066 7.32405 16.7691 7.43835 16.9935 7.62463C17.366 7.93368 17.5777 8.33163 17.62 8.81426C17.6243 8.84389 17.6243 8.87352 17.6285 8.90739C17.6285 8.93703 17.6285 8.96666 17.6285 9.00053C17.6285 9.009 17.6243 9.01747 17.6243 9.02593C17.62 9.08944 17.6158 9.15294 17.6073 9.21644C17.5565 9.53396 17.4295 9.81337 17.2221 10.0589C16.9257 10.4018 16.5532 10.6008 16.1044 10.6558C16.0705 10.6601 16.0324 10.6643 15.9986 10.6686C15.9435 10.6686 15.8885 10.6686 15.8335 10.6686Z" fill="#FEE500"/>
</svg>
