<svg width="24" height="24" viewBox="0 0 24 24" fill="none" xmlns="http://www.w3.org/2000/svg">
<path fill-rule="evenodd" clip-rule="evenodd" d="M8.26798 2.04898L7.4 2.69996C6.57037 3.32218 5.42963 3.32218 4.6 2.69996L4.2 2.39996C3.85381 2.14031 3.43274 1.99996 3 1.99996C1.89543 1.99996 1 2.89539 1 3.99996V8.99996C1 11.7614 3.23858 14 6 14H18.5C20.9853 14 23 11.9852 23 9.49996V8.99996C23 6.79082 21.2091 4.99996 19 4.99996H17.2111C16.6188 4.99996 16.0398 4.82465 15.547 4.49611L11.7321 1.95283C10.6738 1.24728 9.28553 1.28581 8.26798 2.04898ZM10.6227 3.61693L14.4376 6.16021C15.2589 6.70777 16.224 6.99996 17.2111 6.99996H19C20.1046 6.99996 21 7.89539 21 8.99996V9.49996C21 10.8807 19.8807 12 18.5 12H6C4.34315 12 3 10.6568 3 8.99996V3.99996L3.4 4.29996C4.94074 5.45551 7.05926 5.45551 8.6 4.29996L9.46798 3.64898C9.80716 3.39459 10.2699 3.38174 10.6227 3.61693ZM5 16C4.44772 16 4 16.4477 4 17C4 17.5522 4.44772 18 5 18H19C19.5523 18 20 17.5522 20 17C20 16.4477 19.5523 16 19 16H5Z" fill="#04D563"/>
</svg>
