<svg width="32" height="34" viewBox="0 0 32 34" fill="none" xmlns="http://www.w3.org/2000/svg">
<path fill-rule="evenodd" clip-rule="evenodd" d="M15.6704 7.94844C13.8284 7.94844 12.3351 6.39298 12.3351 4.47422C12.3351 2.55546 13.8284 1 15.6704 1C17.5124 1 19.0056 2.55546 19.0056 4.47422C19.0056 6.39298 17.5124 7.94844 15.6704 7.94844Z" stroke="#A1A3F6" stroke-width="1.5" stroke-linecap="round" stroke-linejoin="round"/>
<path fill-rule="evenodd" clip-rule="evenodd" d="M5.03599 16.5741C5.99788 11.6116 9.38783 11.0612 13.0019 10.3789C14.579 10.0814 16.205 10.4516 17.5192 11.4073L20.8731 13.849C21.475 14.2883 22.2597 14.3486 22.9169 14.006L23.4506 13.7281C24.4394 13.2134 25.6414 13.6312 26.1355 14.6612C26.6295 15.6912 26.2284 16.9434 25.2396 17.458L24.706 17.7359C22.7351 18.763 20.3825 18.5827 18.5771 17.2662L18.3423 17.0953V19.5967L20.5863 21.9342C21.7134 23.104 22.345 24.6945 22.3406 26.352V30.8782C22.3406 32.0294 21.4447 32.9627 20.3395 32.9627C19.2343 32.9627 18.3383 32.0294 18.3383 30.8782V26.352C18.3399 25.7988 18.129 25.2679 17.7526 24.8775L15.6701 22.7082V24.4717C15.6704 25.9647 15.1579 27.4085 14.2253 28.5421L11.1862 32.2345C10.7267 32.8202 9.99861 33.1006 9.28384 32.9672C8.56907 32.8339 7.97975 32.3076 7.74399 31.5922C7.50822 30.8767 7.66302 30.0844 8.14845 29.5219L11.1862 25.8295C11.4973 25.4513 11.6681 24.9697 11.6678 24.4717V14.8676L10.6992 15.051C9.89195 15.2023 9.25636 15.8538 9.09833 16.6923L8.96492 17.3871C8.82527 18.1177 8.32205 18.7152 7.64483 18.9545C6.96761 19.1938 6.21927 19.0386 5.6817 18.5473C5.14414 18.056 4.89901 17.3033 5.03866 16.5727L5.03599 16.5741Z" stroke="#A1A3F6" stroke-width="1.5" stroke-linecap="round" stroke-linejoin="round"/>
</svg>
