<svg width="13" height="41" viewBox="0 0 13 41" fill="none" xmlns="http://www.w3.org/2000/svg">
<path d="M9.89226 7.16842L10.1217 7.23472C11.2836 7.56633 11.5562 8.64619 11.3886 9.98163C11.3943 10.1973 11.4287 10.4059 11.492 10.6076C12.3466 12.7048 11.9002 12.831 12.405 14.6023C12.4121 14.624 12.412 14.6383 12.4118 14.6599C12.5964 14.9774 12.5047 17.7793 12.3415 19.5172C12.3484 19.5532 12.3482 19.582 12.3408 19.6178C12.2716 20.2497 12.2577 20.1778 12.3353 20.3939C12.4128 20.61 12.7138 21.7332 12.7206 21.7979C12.7342 21.8986 12.7335 21.9992 12.7185 22.0926C12.6587 22.4083 12.5985 22.796 12.4689 22.831C12.3957 23.0245 12.2798 23.153 12.2077 23.1884C12.0336 23.41 11.9824 23.5461 11.9107 23.5169C11.8391 23.4876 11.8109 23.4012 11.8402 23.3295C11.8402 23.3295 11.8402 23.3295 11.8402 23.3224C11.8696 23.2291 11.8332 23.3007 11.7749 23.4081C11.7022 23.537 11.6365 23.673 11.586 23.7014C11.3785 23.5778 11.5169 23.3129 11.6405 23.1125C11.7132 22.9981 11.6044 23.141 11.4735 23.3557C11.3572 23.5489 11.241 23.7205 11.2124 23.6988C10.9406 23.51 11.2896 22.9448 11.3475 22.8805C11.3417 22.6936 11.3429 22.514 11.3514 22.3272C11.2948 22.2046 11.2532 21.9959 11.2266 21.6867C11.197 21.8087 11.1531 21.9234 11.1092 22.038C11.044 22.1094 11.2191 22.7431 10.7305 22.7396C10.7322 22.4953 10.7346 22.1575 10.7363 21.9276C10.7376 21.7408 10.7985 21.2597 10.7998 21.0729C10.8011 20.8861 11.2214 20.4004 11.2431 20.379C11.2595 20.0845 11.2473 19.7826 11.2206 19.4877C11.2207 19.4806 11.2208 19.4662 11.228 19.459C11.1396 18.7542 10.9219 18.034 10.7742 17.5874C10.6264 17.1408 10.3595 16.2694 10.4142 15.6518C10.4072 15.6302 10.4002 15.6014 10.4076 15.5799C10.4017 15.3858 10.4247 15.1848 10.4835 14.9983C9.92257 14.0458 9.61404 12.9657 9.60032 11.8589C9.42236 12.6338 8.89786 13.6361 8.89363 14.2325C8.88854 14.9511 9.10004 15.5275 9.09668 16.0018C9.09464 16.2892 9.01275 16.691 8.85089 17.2217C9.13425 17.7986 10.3003 20.5807 10.4778 22.9103C10.6487 25.1608 10.6811 26.6701 10.4403 28.2062C10.967 28.9142 11.1742 31.1146 10.7981 33.4834C10.6553 34.3663 10.8285 36.2862 10.9869 37.2647C11.1452 38.2431 10.0601 38.2426 9.68132 37.9525C9.46692 37.7857 9.12552 37.2874 9.27881 36.9507C9.26958 36.2249 9.04095 34.0099 8.47733 32.4178C8.18154 31.5677 8.20569 30.1881 8.24696 29.4339C8.24008 29.3907 8.22601 29.3475 8.21913 29.3043C8.13581 28.8941 8.18702 28.7651 8.19589 28.5281C7.96324 27.894 7.353 26.7974 7.12987 25.8329C6.94166 25.0123 6.76858 24.0841 6.59627 23.0481L6.41668 23.0396C6.35007 23.3122 6.29778 23.5921 6.25982 23.8793C6.20488 24.5328 6.28337 25.6257 5.27789 28.5864C5.27494 29.0032 5.40393 29.0544 5.35006 29.5571C5.33462 29.7079 5.31205 29.8514 5.27505 30.0021C5.48426 30.9018 5.68914 32.4124 5.02556 33.7731C4.58794 34.6826 4.33456 35.9599 4.48053 36.658C4.66507 36.9827 4.57359 37.7223 4.37825 37.9077C4.02386 38.2286 2.66722 38.0106 2.83967 36.9985C3.01212 35.9865 3.02296 34.4559 2.74404 33.2539C2.49288 32.1885 2.58812 30.9173 2.82056 29.5535C2.82091 29.5032 2.82127 29.4529 2.82168 29.3954C2.82346 29.1439 2.83227 28.914 2.84817 28.6986C2.72978 28.166 2.57485 27.7193 2.42154 26.0295C2.34142 25.1666 2.44711 24.4487 2.43131 23.6366C2.50748 20.9998 2.99691 17.8485 3.23847 17.225L3.25284 17.2251C3.219 16.9303 3.19958 16.6283 3.19448 16.3336C3.19708 15.9672 3.42544 15.1783 3.50249 14.4459C3.56385 13.9001 3.2518 13.3158 3.04779 12.6964C2.97043 13.4719 2.58398 14.2597 2.08363 14.8957C2.61993 17.2997 1.68548 18.3494 1.4133 20.2518C1.44897 20.288 1.47746 20.3242 1.50595 20.3603C1.81209 20.7649 1.85862 21.297 1.66002 21.9423C1.7591 22.1586 1.83009 22.2813 1.8729 22.3247C1.99434 22.4262 2.0954 22.3622 2.12904 22.6858C2.02151 22.6491 1.89966 22.6052 1.79217 22.5613C2.02813 22.7282 2.09882 22.894 2.01871 23.0444L1.70381 22.8625C1.78234 22.9349 1.83198 23.0287 1.84564 23.1294C1.83774 23.2299 1.80833 23.3231 1.75742 23.409L1.46581 22.983L1.08287 22.2616L1.3011 22.9027C1.45057 23.105 1.52834 23.2852 1.5417 23.429C1.55505 23.5729 1.50414 23.6587 1.37469 23.6722C1.11845 23.3254 0.961886 23.1087 0.904908 23.0365C0.75589 22.7695 0.628481 22.4956 0.52273 22.2074C0.4736 22.0417 0.46208 21.6392 0.488271 20.9855C0.482001 20.8561 0.482969 20.7195 0.498257 20.5903C0.621274 19.4558 0.022598 17.7412 0.207633 15.9675C0.23882 15.6228 0.320308 15.2785 0.444758 14.956C0.475588 14.6615 0.650797 14.2747 0.638208 14.0231C0.527345 11.4138 1.14186 11.9068 1.11474 10.6634C1.08762 9.41998 1.01443 8.59306 1.49297 7.99281C1.86281 7.52114 2.6983 7.25399 3.20874 7.22167C3.3099 7.14334 3.42534 7.07948 3.54072 7.02281C3.87957 6.86712 4.23269 6.7259 4.58571 6.59905C5.01365 6.04156 4.93557 5.90447 4.94254 4.92001C4.94962 3.92118 7.4615 4.38452 7.45849 4.80849C7.45569 5.20371 7.25531 6.10056 7.75537 6.5209" fill="url(#paint0_linear_91_3233)"/>
<path fill-rule="evenodd" clip-rule="evenodd" d="M1.96851 40.0637C2.05204 40.4452 2.37357 40.7061 2.86144 40.8174C3.34931 40.9286 4.22624 40.8989 4.50057 40.7212C4.7749 40.5435 5.31118 39.9077 4.56385 38.8892C4.77667 38.2655 5.11053 37.8008 4.54804 37.0638C4.29272 37.6009 3.50416 37.3295 2.92374 37.0954C2.78757 37.0441 2.49194 38.199 2.3946 38.7516C2.05881 39.4894 1.85042 39.488 1.96851 40.0637Z" fill="#C6C6C6"/>
<path fill-rule="evenodd" clip-rule="evenodd" d="M3.24057 36.9543C3.4643 36.8194 3.75163 36.8358 3.95885 37.0025C4.01603 37.046 4.10822 37.2192 4.25225 37.1771C4.47546 37.114 4.45554 36.8839 4.53514 36.8054C4.61474 36.7269 4.83328 37.3249 4.6281 37.884C4.42293 38.443 4.84083 39.3012 4.84083 39.3012C4.84083 39.3012 5.04174 40.3589 4.29416 40.3896C4.07848 40.4024 4.08669 40.2588 3.46845 40.2903C3.09464 40.3092 3.1721 40.5325 2.61304 40.3274C2.05397 40.1222 1.91356 39.6541 2.02303 39.4177C2.13979 39.167 2.35841 38.7374 2.48368 38.2999C2.50314 37.5815 2.63595 37.0937 2.86773 36.8367C2.8739 36.9805 2.97389 37.0674 3.02419 37.0678C3.18222 37.0761 3.18278 36.997 3.24057 36.9543Z" fill="black"/>
<path fill-rule="evenodd" clip-rule="evenodd" d="M2.96238 37.6707L3.85832 38.0005L3.13663 38.4337L3.90317 38.7697L3.04046 38.8211L3.87712 38.3886L3.11782 38.0455L3.9689 37.606L2.96238 37.6707Z" stroke="white" stroke-width="1.07" stroke-linecap="round" stroke-linejoin="round"/>
<path fill-rule="evenodd" clip-rule="evenodd" d="M11.8728 40.133C11.7982 40.5205 11.4802 40.7841 10.9978 40.9029C10.5155 41.0216 9.63167 41.0154 9.35265 40.8409C9.07357 40.6737 8.5247 40.0446 9.25779 39.015C9.03223 38.3954 8.69052 37.9402 9.2348 37.1895C9.50409 37.7232 10.2822 37.4341 10.8589 37.1867C10.9958 37.1301 11.311 38.2822 11.4221 38.8291C11.7762 39.5646 11.9847 39.5589 11.8728 40.133Z" fill="#C6C6C6"/>
<path fill-rule="evenodd" clip-rule="evenodd" d="M10.5438 37.0478C10.3148 36.9169 10.0271 36.9436 9.82472 37.1146C9.76688 37.1645 9.67948 37.3292 9.53602 37.2922C9.31366 37.2331 9.39444 36.9894 9.3159 36.917C9.23737 36.8445 8.95998 37.4534 9.17163 38.0082C9.39047 38.5631 8.98909 39.4298 8.98909 39.4298C8.98909 39.4298 8.8091 40.4921 9.56356 40.5046C9.77913 40.5061 9.77291 40.3696 10.3836 40.3883C10.7572 40.3981 10.6837 40.6275 11.2458 40.4087C11.8079 40.19 11.9262 39.7165 11.8129 39.4857C11.6925 39.2334 11.4655 38.8078 11.3249 38.3756C11.2869 37.6567 11.1466 37.1671 10.9112 36.9211C10.903 37.0647 10.8089 37.1575 10.7658 37.1572C10.6076 37.1704 10.601 37.0914 10.5438 37.0478Z" fill="black"/>
<path fill-rule="evenodd" clip-rule="evenodd" d="M10.8334 37.7612L9.94705 38.107L10.6699 38.529L9.9128 38.8829L10.7821 38.9178L9.92993 38.495L10.687 38.141L9.82764 37.7181L10.8334 37.7612Z" stroke="white" stroke-width="1.07" stroke-linecap="round" stroke-linejoin="round"/>
<g opacity="0.42" filter="url(#filter0_f_91_3233)">
<path fill-rule="evenodd" clip-rule="evenodd" d="M5.05056 5.18812C5.06906 5.61942 5.15463 6.72669 5.60556 6.98141C6.05648 7.23612 6.58828 7.2327 6.86307 6.99032C7.13787 6.74793 7.40965 5.91626 7.42269 5.08995C7.49852 4.52996 4.86759 4.64067 5.05056 5.18812Z" fill="#915D2E" fill-opacity="0.7"/>
</g>
<path fill-rule="evenodd" clip-rule="evenodd" d="M4.79263 5.33066C4.81796 5.81231 5.38829 6.45592 5.62405 6.65162C5.85981 6.84732 6.47728 6.92355 6.75222 6.65961C7.02717 6.39567 7.27367 6.08841 7.33243 5.90918C7.39119 5.72994 7.57364 5.33599 7.6032 5.22122C7.78753 5.57465 8.49586 3.98434 7.87706 4.09493C7.88007 3.67097 7.93051 2.63652 7.35891 2.17256C6.7873 1.70859 6.04054 1.62425 5.25469 1.98518C4.46884 2.34611 4.31962 3.12116 4.49194 4.15718C4.6354 4.19413 3.95382 4.03839 4.2147 4.74449C4.39175 5.11223 4.38941 5.44278 4.79263 5.33066Z" fill="#FFD4AB"/>
<path opacity="0.75" fill-rule="evenodd" clip-rule="evenodd" d="M8.75148 17.3718C7.75868 18.0235 3.59489 17.9131 3.12616 17.365C2.82518 16.1681 3.30835 15.4479 3.35513 14.4608C3.3772 13.9951 3.06838 13.5765 2.97311 12.8818C2.88694 12.5053 2.84478 12.1864 2.84663 11.9251C3.31511 11.4294 3.55306 10.6592 3.56046 9.61437C3.57116 8.10386 3.28651 7.73336 3.11739 7.33596C3.07784 7.26363 3.28244 7.14453 3.50865 7.05522C3.76954 6.95221 4.04686 6.80358 4.08381 6.86233C4.08284 6.99813 4.61356 8.95802 6.07181 8.96835C7.53006 8.97868 7.98699 8.64751 8.39094 6.87923C8.37466 6.82828 8.56758 6.87235 8.8904 6.96106C9.21322 7.04976 9.45967 7.13385 9.395 7.17402C9.2944 7.21503 9.25425 7.5096 9.00134 9.37718C8.74843 11.2448 9.26822 11.2594 9.55804 11.6028C9.56437 11.8837 9.52134 12.2094 9.42895 12.5799C8.95654 13.6484 8.79079 14.5053 8.9317 15.1506C9.14307 16.1184 9.16986 16.9755 8.75148 17.3718Z" fill="#FFFAF9"/>
<path opacity="0.85" fill-rule="evenodd" clip-rule="evenodd" d="M6.43433 24.314L6.50461 23.6317L6.68582 23.6302L6.75182 24.3162C8.19247 24.3317 9.20703 24.2552 9.79551 24.0869C10.2606 23.9539 10.5557 23.5953 10.6806 23.0109C10.3729 21.2708 10.0845 20.0155 9.81549 19.245C9.55273 18.4925 9.13637 17.4409 8.95672 17.4396C6.28386 18.1668 3.80467 17.7051 3.3443 17.443C3.19765 17.4319 3.13172 17.9345 3.03179 18.3714C2.87671 19.0493 2.53691 22.0015 2.48189 23.1896C2.47575 24.055 3.79324 24.4298 6.43433 24.314Z" fill="black"/>
<path d="M7.72112 4.1259C7.74275 3.93034 7.79298 3.7961 7.68519 3.37138C7.55196 3.0143 7.25807 2.76669 7.28224 2.33557C7.05326 2.15629 6.55933 2.49755 6.06496 2.567C5.57059 2.63644 4.5952 2.37177 4.66706 3.16223C4.77485 3.75189 4.61905 3.79164 4.66706 4.26962L4.48742 4.19776C4.34371 4.01811 4.06169 3.12043 4.23976 2.1547C4.41782 1.18897 6.48731 0.239338 7.44813 1.92725C8.39709 1.64729 7.92305 3.90935 7.90077 4.1259H7.72112Z" fill="black"/>
<defs>
<filter id="filter0_f_91_3233" x="1.0415" y="0.720093" width="10.3828" height="10.4521" filterUnits="userSpaceOnUse" color-interpolation-filters="sRGB">
<feFlood flood-opacity="0" result="BackgroundImageFix"/>
<feBlend mode="normal" in="SourceGraphic" in2="BackgroundImageFix" result="shape"/>
<feGaussianBlur stdDeviation="2" result="effect1_foregroundBlur_91_3233"/>
</filter>
<linearGradient id="paint0_linear_91_3233" x1="6.48316" y1="-0.772409" x2="8.0288" y2="47.1297" gradientUnits="userSpaceOnUse">
<stop stop-color="#FFD6A7"/>
<stop offset="0.49" stop-color="#FFCFB0"/>
<stop offset="1" stop-color="#FFB783"/>
</linearGradient>
</defs>
</svg>
