<svg width="326" height="279" viewBox="0 0 326 279" fill="none" xmlns="http://www.w3.org/2000/svg">
<g clip-path="url(#clip0_83_1209)">
<path d="M98.8747 107.386C97.1355 104.928 94.6776 102.655 94.5219 99.6223C94.3793 96.841 96.281 94.0796 95.479 91.4188C94.8623 89.3729 92.8277 88.1385 90.8396 87.4847C87.0334 86.2512 82.9602 86.4221 79.2522 87.9712L79.4534 87.8164C77.1903 86.9373 74.5449 87.8448 72.7644 89.5257C70.9836 91.2066 69.9254 93.5365 69.1044 95.8713C68.2831 98.2061 67.6469 100.626 66.506 102.815C65.3649 105.004 63.618 106.995 61.3131 107.751C62.0847 109.43 64.4968 110.005 65.9115 108.849C66.2729 108.529 66.5978 108.163 66.8791 107.758C67.8226 106.507 68.7661 105.256 69.7098 104.005C70.6806 105.888 69.2302 108.486 70.4236 110.23C71.039 111.129 72.1628 111.47 73.2066 111.715C81.3648 113.613 89.8276 113.271 97.8344 110.719C98.4779 110.512 99.1879 110.227 99.4548 109.592C99.7631 108.859 99.332 108.032 98.8747 107.386Z" fill="#2F2E41"/>
<path d="M122.007 116.976C121.956 117.22 121.923 117.468 121.907 117.718L104.076 128.936L99.742 126.215L95.1216 132.811L102.365 138.441C102.95 138.895 103.655 139.131 104.373 139.112C105.092 139.093 105.785 138.82 106.349 138.335L124.736 122.517C125.566 122.852 126.47 122.903 127.327 122.664C128.184 122.426 128.955 121.908 129.536 121.18C130.116 120.452 130.48 119.549 130.579 118.59C130.678 117.631 130.506 116.662 130.087 115.812C129.669 114.962 129.022 114.271 128.235 113.832C127.447 113.392 126.556 113.224 125.678 113.35C124.801 113.477 123.98 113.891 123.324 114.539C122.668 115.186 122.209 116.036 122.007 116.976H122.007Z" fill="#FFB7B7"/>
<path d="M103.48 129.467L97.717 137.612C97.553 137.844 97.3452 138.034 97.1076 138.17C96.87 138.307 96.6083 138.385 96.3403 138.401C96.0723 138.417 95.8043 138.37 95.5545 138.263C95.3047 138.156 95.079 137.991 94.8928 137.781L88.3687 130.393C87.2859 129.471 86.5824 128.119 86.4125 126.633C86.2427 125.147 86.6202 123.648 87.4624 122.464C88.3047 121.281 89.5428 120.511 90.9053 120.322C92.2678 120.133 93.6435 120.54 94.7306 121.456L102.913 126.445C103.148 126.588 103.351 126.784 103.509 127.021C103.668 127.257 103.777 127.528 103.831 127.815C103.885 128.101 103.881 128.397 103.821 128.683C103.76 128.968 103.644 129.235 103.48 129.467H103.48Z" fill="#0066FF"/>
<path d="M95.5486 271.382L100.637 271.381L103.058 249.977L95.5475 249.977L95.5486 271.382Z" fill="#FFB7B7"/>
<path d="M94.2505 269.57L104.272 269.569H104.273C105.967 269.57 107.591 270.303 108.789 271.609C109.987 272.915 110.66 274.687 110.66 276.534V276.76L94.2508 276.761L94.2505 269.57Z" fill="#2F2E41"/>
<path d="M60.6808 271.382L65.77 271.381L68.1908 249.977L60.6801 249.977L60.6808 271.382Z" fill="#FFB7B7"/>
<path d="M59.3828 269.57L69.4048 269.569H69.4052C71.099 269.57 72.7234 270.303 73.9212 271.609C75.1189 272.916 75.7918 274.687 75.792 276.534V276.76L59.3831 276.761L59.3828 269.57Z" fill="#2F2E41"/>
<path d="M92.4925 104.36C93.0225 99.0948 89.5381 94.358 84.7098 93.7801C79.8815 93.2021 75.5378 97.0018 75.0078 102.267C74.4778 107.532 77.9622 112.269 82.7904 112.847C87.6187 113.425 91.9625 109.625 92.4925 104.36Z" fill="#FFB7B7"/>
<path d="M88.8961 117.691L94.0773 120.49C94.0773 120.49 99.8664 131.46 96.5457 141.871C94.9334 146.926 99.4735 163.038 99.4735 163.038C99.4735 163.038 106.508 236.021 106.53 258.546C97.7909 260.011 89.4891 261.822 89.074 257.296C88.659 252.769 84.1152 199.25 84.1152 199.25C84.1152 199.25 77.8666 258.654 72.8855 259.559C67.9044 260.464 57.9423 259.106 57.9423 259.106C57.9423 259.106 65.8512 172.091 71.2474 166.659L72.0775 162.133L72.0553 121.502L78.2724 118.267L88.8961 117.691Z" fill="#2F2E41"/>
<path d="M70.3611 179.373C70.9344 179.034 71.4328 178.563 71.821 177.992C72.2093 177.421 72.478 176.764 72.6083 176.068C72.7385 175.371 72.7271 174.652 72.5749 173.961C72.4227 173.269 72.1333 172.623 71.7272 172.067L77.7529 128.268L69.8804 127.856L65.1832 171.473C64.3717 172.279 63.8595 173.382 63.7437 174.572C63.6278 175.762 63.9164 176.957 64.5546 177.931C65.1928 178.905 66.1364 179.589 67.2066 179.855C68.2768 180.121 69.3992 179.949 70.3611 179.373Z" fill="#FFB7B7"/>
<path d="M77.5819 139.242L68.1667 138.594C67.8988 138.576 67.6377 138.494 67.4012 138.356C67.1647 138.218 66.9583 138.025 66.7961 137.792C66.6339 137.559 66.5197 137.29 66.4613 137.005C66.4029 136.719 66.4016 136.423 66.4576 136.137L68.4194 126.106C68.5135 124.612 69.1472 123.219 70.1815 122.234C71.2158 121.248 72.5663 120.75 73.9368 120.849C75.3073 120.948 76.5859 121.635 77.4923 122.76C78.3987 123.886 78.8589 125.357 78.7719 126.852L79.5609 137.039C79.5834 137.33 79.548 137.624 79.4571 137.899C79.3662 138.175 79.222 138.426 79.0342 138.635C78.8463 138.844 78.6194 139.006 78.3688 139.111C78.1182 139.216 77.8498 139.261 77.5819 139.242H77.5819Z" fill="#0066FF"/>
<path d="M92.9678 97.0791C92.6251 95.3838 91.512 93.9792 90.2296 92.9505C88.1157 91.2547 85.5232 90.4211 82.9037 90.5948C80.2842 90.7685 77.8036 91.9385 75.8936 93.9011C74.8264 94.929 74.057 96.2738 73.6795 97.7709C73.4995 98.5192 73.4898 99.3041 73.6515 100.057C73.8132 100.811 74.1413 101.509 74.6072 102.093L74.7829 102.213C74.6236 101.476 75.1485 100.74 75.7756 100.414C76.4278 100.153 77.1087 99.987 77.8006 99.9194C78.8476 99.7036 79.8398 99.2453 80.7104 98.5754C81.5809 97.9055 82.3095 97.0397 82.8468 96.0364C83.2449 97.2712 83.8809 98.3988 84.7119 99.3432C85.543 100.288 86.5499 101.027 87.6649 101.512C88.8273 102.008 92.0199 102.689 93.1265 102.06C94.5382 101.257 93.3106 98.7745 92.9678 97.0791Z" fill="#2F2E41"/>
<path d="M28.2551 258.16C29.7769 258.743 31.4108 258.889 32.9993 258.584C34.5879 258.279 36.0777 257.533 37.3251 256.418C40.5018 253.51 41.498 248.721 42.3082 244.286L44.7052 231.166L39.6868 234.934C36.0776 237.644 32.3874 240.441 29.8887 244.366C27.3899 248.291 26.2998 253.649 28.3069 257.896" fill="#E6E6E6"/>
<path d="M29.03 274.956C28.3984 269.938 27.7485 264.855 28.1926 259.783C28.5862 255.279 29.8465 250.88 32.4122 247.272C33.7741 245.36 35.4313 243.723 37.3092 242.433C37.7988 242.096 38.2495 242.942 37.762 243.277C34.5126 245.517 31.9992 248.823 30.5843 252.721C29.0216 257.055 28.7707 261.779 29.0399 266.383C29.2026 269.167 29.5483 271.933 29.8955 274.696C29.9229 274.821 29.9058 274.952 29.8477 275.064C29.7895 275.176 29.6946 275.259 29.5821 275.298C29.4674 275.331 29.3451 275.314 29.2418 275.25C29.1385 275.186 29.0625 275.081 29.0303 274.956L29.03 274.956Z" fill="#F2F2F2"/>
<path d="M33.5765 266.904C34.2291 267.986 35.1262 268.867 36.1814 269.461C37.2366 270.055 38.4143 270.343 39.601 270.296C42.6516 270.138 45.1937 267.818 47.4818 265.614L54.2513 259.096L49.7712 258.862C46.5493 258.694 43.2443 258.536 40.1755 259.621C37.1068 260.705 34.2767 263.312 33.7156 266.776" fill="#E6E6E6"/>
<path d="M27.2446 277.841C30.2855 271.974 33.8125 265.453 40.1151 263.369C41.8674 262.791 43.7047 262.584 45.5283 262.759C46.1031 262.813 45.9595 263.779 45.3859 263.725C42.3292 263.449 39.2783 264.329 36.747 266.218C34.311 268.026 32.4143 270.54 30.8092 273.205C29.8258 274.838 28.9451 276.54 28.0643 278.24C27.7829 278.783 26.9598 278.391 27.2446 277.841Z" fill="#F2F2F2"/>
<path d="M232.734 169.368C227.028 161.041 216.584 159.031 211.394 163.26C206.204 167.489 205.012 178.98 210.718 187.308C216 195.016 225.57 197.118 230.841 194.23C230.824 194.32 230.823 194.413 230.838 194.504L231.135 196.106C231.158 196.228 231.208 196.342 231.283 196.436C231.357 196.531 231.452 196.603 231.56 196.647C231.667 196.69 231.782 196.702 231.895 196.683C232.008 196.664 232.115 196.614 232.205 196.537L234.721 194.393C234.811 194.316 234.882 194.216 234.926 194.101C234.97 193.986 234.987 193.861 234.975 193.737C234.962 193.613 234.921 193.495 234.855 193.393C234.788 193.292 234.7 193.211 234.596 193.157L233.243 192.455C233.195 192.432 233.145 192.415 233.094 192.404C237.157 187.72 238.028 177.093 232.734 169.368Z" fill="#CCCCCC"/>
<path d="M220.252 166.224C223.044 166.708 225.558 168.341 227.277 170.788C228.996 173.235 229.788 176.308 229.489 179.372C229.428 180.074 230.433 180.07 230.494 179.372C230.782 176.069 229.914 172.769 228.064 170.135C226.214 167.5 223.519 165.725 220.52 165.167C219.887 165.049 219.615 166.106 220.252 166.224Z" fill="white"/>
<path d="M242.035 25.4235C247.024 16.5652 244.88 5.23929 239.359 1.54201C233.838 -2.15527 223.605 0.880932 218.616 9.73921C213.998 17.9387 215.741 28.4126 220.149 32.6873C220.066 32.7034 219.986 32.7366 219.914 32.7853L218.659 33.6781C218.563 33.7462 218.485 33.8398 218.432 33.9501C218.379 34.0603 218.352 34.1836 218.355 34.3081C218.358 34.4327 218.39 34.5544 218.448 34.6617C218.506 34.7691 218.588 34.8584 218.687 34.9213L221.443 36.6796C221.542 36.7425 221.653 36.7769 221.768 36.7795C221.882 36.7821 221.995 36.7528 222.096 36.6944C222.197 36.636 222.282 36.5504 222.344 36.4458C222.406 36.3412 222.443 36.221 222.45 36.0967L222.549 34.4656C222.551 34.4087 222.547 34.3518 222.537 34.2959C228.029 36.6831 237.408 33.6407 242.035 25.4235Z" fill="#CCCCCC"/>
<path d="M240.105 11.6134C240.723 14.6207 240.26 17.7723 238.81 20.4177C237.36 23.0631 235.033 25.0004 232.311 25.8296C231.69 26.0268 232.066 27.0444 232.683 26.8486C235.604 25.9201 238.095 23.8216 239.657 20.9738C241.219 18.1261 241.736 14.7397 241.104 11.4938C240.971 10.8091 239.97 10.9236 240.105 11.6134Z" fill="white"/>
<path d="M153.622 67.4537C153.205 57.0682 145.611 48.9957 139.138 49.3049C132.666 49.614 125.748 58.3797 126.165 68.7652C126.551 78.3783 133.375 85.9904 139.222 86.8394C139.162 86.9035 139.113 86.9796 139.078 87.0637L138.497 88.5702C138.453 88.685 138.436 88.8103 138.449 88.9342C138.461 89.058 138.503 89.1763 138.569 89.2778C138.635 89.3793 138.724 89.4606 138.827 89.5141C138.931 89.5675 139.045 89.5913 139.159 89.5832L142.345 89.3562C142.459 89.3481 142.569 89.3083 142.665 89.2407C142.761 89.173 142.84 89.0798 142.893 88.9698C142.947 88.8597 142.974 88.7366 142.972 88.612C142.969 88.4874 142.938 88.3655 142.88 88.258L142.124 86.8468C142.097 86.7982 142.064 86.7534 142.027 86.7132C147.803 85.3362 154.009 77.0877 153.622 67.4537Z" fill="#0066FF"/>
<path d="M144.929 57.1927C146.987 59.3059 148.222 62.1998 148.379 65.2771C148.537 68.3544 147.604 71.3802 145.775 73.7298C145.362 74.2724 146.196 74.8861 146.606 74.3471C148.55 71.7935 149.536 68.5333 149.367 65.2202C149.198 61.9071 147.887 58.786 145.696 56.483C145.234 55.9975 144.463 56.7036 144.929 57.1927Z" fill="white"/>
<path d="M183.3 136.35C180.805 136.179 178.383 135.365 176.232 133.976C174.081 132.587 172.263 130.661 170.926 128.358C170.552 127.705 170.063 126.987 170.322 126.183C170.412 125.875 170.596 125.609 170.843 125.43C171.089 125.25 171.385 125.167 171.68 125.194C172.445 125.295 172.938 126.111 173.033 126.892C173.14 127.779 172.566 128.475 171.858 128.804C170.127 129.609 168.382 128.365 166.972 127.373C163.761 125.111 160.228 123.065 156.336 122.807C152.736 122.569 148.875 124.108 146.872 127.513C146.522 128.109 147.391 128.659 147.74 128.066C149.726 124.69 153.742 123.477 157.233 123.999C159.313 124.357 161.322 125.1 163.173 126.198C164.132 126.741 165.063 127.343 165.975 127.976C166.843 128.636 167.762 129.211 168.723 129.694C170.326 130.412 172.447 130.356 173.567 128.703C174.611 127.161 173.804 124.594 172.057 124.16C171.674 124.078 171.278 124.1 170.905 124.226C170.532 124.351 170.193 124.576 169.919 124.879C169.645 125.183 169.444 125.556 169.335 125.965C169.226 126.374 169.211 126.806 169.293 127.222C169.467 128.13 170.094 129.019 170.579 129.761C172.037 131.998 173.937 133.85 176.139 135.18C178.34 136.51 180.788 137.285 183.3 137.447C183.947 137.482 183.945 136.385 183.3 136.35L183.3 136.35Z" fill="#CCCCCC"/>
<path d="M279.865 60.8063C282.618 59.4098 285.998 58.952 288.799 60.2497C291.6 61.5474 293.51 64.8736 292.604 67.8172C292.193 69.1518 291.258 70.4644 291.623 71.8123C291.903 72.8498 292.881 73.5348 293.842 74.0219C294.803 74.5089 295.854 74.9184 296.549 75.7398C297.244 76.5613 297.389 77.9754 296.521 78.6125C296.235 78.8224 295.877 78.9219 295.6 79.1431C295.364 79.3525 295.193 79.6371 295.112 79.9572C295.031 80.2774 295.044 80.6171 295.149 80.929C295.38 81.5566 295.762 82.1046 296.254 82.5154C297.24 83.4422 298.542 84.5028 298.236 85.8184C298.123 86.17 297.933 86.4865 297.683 86.7412C297.434 86.9958 297.131 87.181 296.802 87.281C296.118 87.4961 295.409 87.5982 294.697 87.584L265.618 88.5829C264.659 88.6616 263.693 88.6028 262.747 88.408C262.288 88.3166 261.85 88.1227 261.462 87.8385C261.074 87.5543 260.744 87.1859 260.493 86.7563C259.936 85.6323 260.301 84.2478 260.989 83.1982C261.677 82.1487 262.65 81.3207 263.454 80.357C264.258 79.3932 264.916 78.1902 264.775 76.9446C264.661 75.9475 264.058 75.0857 263.625 74.1797C263.192 73.2737 262.941 72.1416 263.501 71.3081C264.292 70.1336 266.188 70.2398 267.087 69.1454C267.765 68.3195 267.634 67.1306 267.701 66.0656C267.863 63.5037 269.49 61.0843 271.805 59.9608C272.982 59.4097 274.263 59.1718 275.541 59.2667C276.82 59.3616 278.059 59.7867 279.157 60.5068L279.865 60.8063Z" fill="#2F2E41"/>
<path d="M315.278 187.584V192.769L296.936 195.237L296.936 187.583L315.278 187.584Z" fill="#9E616A"/>
<path d="M319.888 186.261L319.887 202.982H319.693C318.111 202.982 316.593 202.296 315.473 201.076C314.354 199.855 313.725 198.2 313.725 196.474V196.473L313.726 186.261L319.888 186.261Z" fill="#2F2E41"/>
<path d="M292.603 196.405L291.436 201.432L273.099 198.913L274.823 191.494L292.603 196.405Z" fill="#9E616A"/>
<path d="M297.37 196.357L293.605 212.566L293.417 212.514C291.883 212.09 290.566 211.019 289.755 209.536C288.945 208.054 288.708 206.281 289.097 204.607L289.097 204.607L291.396 194.707L297.37 196.357Z" fill="#2F2E41"/>
<path d="M287.92 138.251L288.911 139.376C288.911 139.376 295.373 144.902 290.592 159.459L282.77 184.03L308.987 185.145L308.425 196.373C308.425 196.373 270.405 198.679 270.738 191.846C271.07 185.014 272.473 159.714 272.473 159.714L264.574 152.797L266.479 141.097L287.92 138.251Z" fill="#2F2E41"/>
<path d="M267.611 149.401L264.574 152.797L254.391 183.322C254.391 183.322 252.84 190.935 256.331 192.627C259.822 194.319 282.284 203.784 282.284 203.784L284.578 194.781L267.27 183.453L275.337 171.901L276.551 153.694L267.611 149.401Z" fill="#2F2E41"/>
<path d="M267.773 95.5526L293.621 89.9167L294.182 105.381L287.487 120.942L288.911 139.376L265.746 143.789L266.471 119.551C266.471 119.551 260.25 109.981 263.915 100.334L267.773 95.5526Z" fill="#E4E4E4"/>
<path d="M325.409 58.869C325.538 59.5181 325.536 60.1903 325.401 60.8382C325.267 61.4861 325.004 62.094 324.63 62.6191C324.257 63.1441 323.783 63.5735 323.241 63.8771C322.699 64.1806 322.103 64.3509 321.494 64.3759L296.708 95.7179L290.945 88.0916L317.121 59.6815C317.15 58.5635 317.555 57.4961 318.257 56.6814C318.96 55.8667 319.912 55.3614 320.934 55.2613C321.956 55.1611 322.975 55.4731 323.8 56.138C324.625 56.8029 325.197 57.7746 325.409 58.869Z" fill="#9E616A"/>
<path d="M302.105 92.298C302.11 92.5907 302.058 92.8814 301.952 93.1501C301.845 93.4189 301.687 93.6594 301.487 93.8552L294.518 100.697C293.643 101.852 292.384 102.581 291.016 102.725C289.649 102.869 288.285 102.416 287.224 101.465C286.163 100.515 285.49 99.1439 285.354 97.6535C285.218 96.163 285.629 94.6745 286.498 93.5142L291.363 84.7333C291.502 84.4827 291.688 84.2677 291.91 84.1029C292.132 83.9381 292.384 83.8274 292.649 83.7783C292.914 83.7293 293.185 83.743 293.444 83.8186C293.704 83.8941 293.945 84.0298 294.152 84.2163L301.427 90.7707C301.634 90.9571 301.802 91.1901 301.919 91.4537C302.035 91.7172 302.099 92.0053 302.105 92.298Z" fill="#E4E4E4"/>
<path d="M227.245 132.525C227.206 131.862 227.301 131.198 227.523 130.579C227.745 129.96 228.089 129.402 228.53 128.944C228.971 128.486 229.499 128.139 230.077 127.928C230.654 127.717 231.267 127.646 231.873 127.721L260.691 100.789L265.339 109.272L235.55 133.077C235.367 134.178 234.821 135.167 234.014 135.858C233.207 136.548 232.196 136.892 231.172 136.824C230.149 136.756 229.183 136.28 228.459 135.488C227.736 134.696 227.303 133.641 227.245 132.525V132.525Z" fill="#9E616A"/>
<path d="M254.885 103.287C254.919 102.997 255.011 102.718 255.153 102.47C255.295 102.222 255.485 102.01 255.709 101.849L263.541 96.2249C264.565 95.2263 265.91 94.7111 267.282 94.7923C268.654 94.8735 269.94 95.5445 270.859 96.6581C271.777 97.7718 272.253 99.2373 272.183 100.733C272.112 102.229 271.501 103.634 270.482 104.639L264.464 112.524C264.292 112.749 264.078 112.931 263.836 113.058C263.594 113.184 263.329 113.253 263.061 113.258C262.792 113.263 262.526 113.205 262.28 113.088C262.034 112.971 261.814 112.797 261.635 112.579L255.345 104.908C255.166 104.69 255.032 104.432 254.952 104.153C254.873 103.873 254.85 103.578 254.885 103.287Z" fill="#E4E4E4"/>
<path d="M278.789 88.3372C284.051 88.3372 288.316 83.6859 288.316 77.9482C288.316 72.2106 284.051 67.5593 278.789 67.5593C273.528 67.5593 269.262 72.2106 269.262 77.9482C269.262 83.6859 273.528 88.3372 278.789 88.3372Z" fill="#9E616A"/>
<path d="M288.536 76.4713C285.527 76.2078 283.029 72.9303 283.342 69.6567C283.377 71.006 282.957 72.3224 282.16 73.3555C281.363 74.3885 280.246 75.0661 279.021 75.2594C277.641 75.4252 276.128 74.9699 274.926 75.7291C273.596 76.57 273.17 78.6121 271.784 79.3384C270.445 80.0401 268.744 79.083 268.082 77.6323C267.421 76.1816 267.583 74.4387 268.021 72.8907C268.647 70.683 269.785 68.6893 271.327 67.1036C272.868 65.518 274.759 64.3942 276.817 63.8417C278.874 63.2893 281.028 63.3268 283.068 63.9507C285.108 64.5747 286.965 65.7638 288.459 67.4024C289.724 68.79 290.729 70.5585 290.892 72.507C291.055 74.4556 290.226 76.5699 288.621 77.4453L288.536 76.4713Z" fill="#2F2E41"/>
<path d="M148.674 277.436H0.887891C0.785016 277.436 0.68636 277.391 0.613616 277.312C0.540873 277.232 0.5 277.125 0.5 277.013C0.5 276.9 0.540873 276.793 0.613616 276.713C0.68636 276.634 0.785016 276.59 0.887891 276.59H148.674C148.777 276.59 148.876 276.634 148.948 276.713C149.021 276.793 149.062 276.9 149.062 277.013C149.062 277.125 149.021 277.232 148.948 277.312C148.876 277.391 148.777 277.436 148.674 277.436Z" fill="#CACACA"/>
</g>
<defs>
<clipPath id="clip0_83_1209">
<rect width="325" height="278.5" fill="white" transform="translate(0.5)"/>
</clipPath>
</defs>
</svg>
